<svg xmlns="http://www.w3.org/2000/svg" xmlns:xlink="http://www.w3.org/1999/xlink" viewBox="0 0 75 75"><defs><style>.a{fill:none;}.b{fill:#eeeeea;}.c{fill:#fff;}.d{fill:url(#a);}</style><pattern id="a" width="25" height="25" patternUnits="userSpaceOnUse" viewBox="0 0 25 25"><rect class="a" width="25" height="25"/><rect class="b" width="25" height="25"/><rect class="c" y="14.87" width="1.34" height="0.3"/><path class="c" d="M.73,14.34c.15,0,.21.14.36.14a.4.4,0,0,0,.25-.1V14a.31.31,0,0,1-.25.13C.91,14.16.9,14,.73,14s-.23.13-.39.13S.1,14.05,0,14v.3c.13,0,.2.13.33.13S.58,14.34.73,14.34Z"/><path class="c" d="M1.34,13.43v-.28A2.36,2.36,0,0,1,0,13.31v.29A2,2,0,0,0,1.34,13.43Z"/><rect class="c" y="24.25" width="1.34" height="0.3"/><path class="c" d="M.73,23.71c.15,0,.21.14.36.14a.4.4,0,0,0,.25-.1v-.34a.31.31,0,0,1-.25.13c-.17,0-.18-.13-.36-.13s-.23.13-.39.13S.1,23.43,0,23.41v.3c.13,0,.2.13.33.13S.58,23.71.73,23.71Z"/><path class="c" d="M1.34,22.81v-.28A2.36,2.36,0,0,1,0,22.68V23A2,2,0,0,0,1.34,22.81Z"/><rect class="c" y="21.12" width="1.34" height="0.3"/><path class="c" d="M.73,20.59c.15,0,.21.14.36.14a.4.4,0,0,0,.25-.1v-.34a.31.31,0,0,1-.25.13c-.17,0-.18-.13-.36-.13s-.23.13-.39.13S.1,20.3,0,20.29v.3c.13,0,.2.13.33.13S.58,20.59.73,20.59Z"/><path class="c" d="M1.34,19.68V19.4A2.36,2.36,0,0,1,0,19.56v.29A2,2,0,0,0,1.34,19.68Z"/><rect class="c" y="18" width="1.34" height="0.3"/><path class="c" d="M.73,17.46c.15,0,.21.14.36.14a.4.4,0,0,0,.25-.1v-.34a.31.31,0,0,1-.25.13c-.17,0-.18-.13-.36-.13s-.23.13-.39.13S.1,17.18,0,17.16v.3c.13,0,.2.13.33.13S.58,17.46.73,17.46Z"/><path class="c" d="M1.34,16.56v-.28A2.36,2.36,0,0,1,0,16.43v.29A2,2,0,0,0,1.34,16.56Z"/><rect class="c" x="2.83" y="13.2" width="1.63" height="0.3"/><path class="c" d="M3.11,12.67c.14,0,.21.14.35.14s.24-.14.39-.14.21.14.36.14a.4.4,0,0,0,.25-.1V12.5H2.83v.27A.54.54,0,0,1,3.11,12.67Z"/><path class="c" d="M4.21,25c-.17,0-.18-.13-.36-.13s-.23.13-.39.13-.24-.13-.35-.13a.43.43,0,0,0-.28.1v0H4.46v-.13A.31.31,0,0,1,4.21,25Z"/><path class="c" d="M2.83,24.1v.28a2.18,2.18,0,0,0,1.63-.12V24A2.61,2.61,0,0,1,2.83,24.1Z"/><rect class="c" x="2.83" y="22.58" width="1.63" height="0.3"/><path class="c" d="M4.21,21.87c-.17,0-.18-.13-.36-.13s-.23.13-.39.13-.24-.13-.35-.13a.43.43,0,0,0-.28.1v.3a.54.54,0,0,1,.28-.1c.14,0,.21.14.35.14S3.7,22,3.85,22s.21.14.36.14a.4.4,0,0,0,.25-.1v-.34A.31.31,0,0,1,4.21,21.87Z"/><path class="c" d="M2.83,21v.28a2.18,2.18,0,0,0,1.63-.12v-.28A2.61,2.61,0,0,1,2.83,21Z"/><rect class="c" x="2.83" y="19.45" width="1.63" height="0.3"/><path class="c" d="M4.21,18.75c-.17,0-.18-.13-.36-.13s-.23.13-.39.13-.24-.13-.35-.13a.43.43,0,0,0-.28.1V19a.54.54,0,0,1,.28-.1c.14,0,.21.14.35.14s.24-.14.39-.14.21.14.36.14a.4.4,0,0,0,.25-.1v-.34A.31.31,0,0,1,4.21,18.75Z"/><path class="c" d="M2.83,17.85v.28A2.18,2.18,0,0,0,4.46,18v-.28A2.61,2.61,0,0,1,2.83,17.85Z"/><rect class="c" x="2.83" y="16.33" width="1.63" height="0.3"/><path class="c" d="M4.21,15.62c-.17,0-.18-.13-.36-.13s-.23.13-.39.13-.24-.13-.35-.13a.43.43,0,0,0-.28.1v.3a.54.54,0,0,1,.28-.1c.14,0,.21.14.35.14s.24-.14.39-.14.21.14.36.14a.4.4,0,0,0,.25-.1v-.34A.31.31,0,0,1,4.21,15.62Z"/><path class="c" d="M2.83,14.72V15a2.18,2.18,0,0,0,1.63-.12v-.28A2.61,2.61,0,0,1,2.83,14.72Z"/><rect class="c" x="5.96" y="14.87" width="1.63" height="0.3"/><path class="c" d="M7.33,14.16c-.17,0-.18-.13-.36-.13s-.23.13-.39.13S6.34,14,6.23,14a.43.43,0,0,0-.28.1v.3a.54.54,0,0,1,.28-.1c.14,0,.21.14.35.14s.24-.14.39-.14.21.14.36.14a.4.4,0,0,0,.25-.1V14A.31.31,0,0,1,7.33,14.16Z"/><path class="c" d="M6,13.27v.28a2.18,2.18,0,0,0,1.63-.12v-.28A2.61,2.61,0,0,1,6,13.27Z"/><rect class="c" x="5.96" y="24.25" width="1.63" height="0.3"/><path class="c" d="M7.33,23.54c-.17,0-.18-.13-.36-.13s-.23.13-.39.13-.24-.13-.35-.13a.43.43,0,0,0-.28.1v.3a.54.54,0,0,1,.28-.1c.14,0,.21.14.35.14s.24-.14.39-.14.21.14.36.14a.4.4,0,0,0,.25-.1v-.34A.31.31,0,0,1,7.33,23.54Z"/><path class="c" d="M6,22.64v.28a2.18,2.18,0,0,0,1.63-.12v-.28A2.61,2.61,0,0,1,6,22.64Z"/><rect class="c" x="5.96" y="21.12" width="1.63" height="0.3"/><path class="c" d="M7.33,20.41c-.17,0-.18-.13-.36-.13s-.23.13-.39.13-.24-.13-.35-.13a.43.43,0,0,0-.28.1v.3a.54.54,0,0,1,.28-.1c.14,0,.21.14.35.14s.24-.14.39-.14.21.14.36.14a.4.4,0,0,0,.25-.1v-.34A.31.31,0,0,1,7.33,20.41Z"/><path class="c" d="M6,19.52v.28a2.18,2.18,0,0,0,1.63-.12V19.4A2.61,2.61,0,0,1,6,19.52Z"/><rect class="c" x="5.96" y="18" width="1.63" height="0.3"/><path class="c" d="M7.33,17.29c-.17,0-.18-.13-.36-.13s-.23.13-.39.13-.24-.13-.35-.13a.43.43,0,0,0-.28.1v.3a.54.54,0,0,1,.28-.1c.14,0,.21.14.35.14s.24-.14.39-.14.21.14.36.14a.4.4,0,0,0,.25-.1v-.34A.31.31,0,0,1,7.33,17.29Z"/><path class="c" d="M6,16.39v.28a2.18,2.18,0,0,0,1.63-.12v-.28A2.61,2.61,0,0,1,6,16.39Z"/><rect class="c" x="9.08" y="13.2" width="1.63" height="0.3"/><path class="c" d="M9.36,12.67c.14,0,.21.14.35.14s.24-.14.39-.14.21.14.36.14a.4.4,0,0,0,.25-.1V12.5H9.08v.27A.54.54,0,0,1,9.36,12.67Z"/><path class="c" d="M10.46,25c-.17,0-.18-.13-.36-.13s-.23.13-.39.13-.24-.13-.35-.13a.43.43,0,0,0-.28.1v0h1.63v-.13A.31.31,0,0,1,10.46,25Z"/><path class="c" d="M9.08,24.1v.28a2.18,2.18,0,0,0,1.63-.12V24A2.61,2.61,0,0,1,9.08,24.1Z"/><rect class="c" x="9.08" y="22.58" width="1.63" height="0.3"/><path class="c" d="M10.46,21.87c-.17,0-.18-.13-.36-.13s-.23.13-.39.13-.24-.13-.35-.13a.43.43,0,0,0-.28.1v.3a.54.54,0,0,1,.28-.1c.14,0,.21.14.35.14S10,22,10.1,22s.21.14.36.14a.4.4,0,0,0,.25-.1v-.34A.31.31,0,0,1,10.46,21.87Z"/><path class="c" d="M9.08,21v.28a2.18,2.18,0,0,0,1.63-.12v-.28A2.61,2.61,0,0,1,9.08,21Z"/><rect class="c" x="9.08" y="19.45" width="1.63" height="0.3"/><path class="c" d="M10.46,18.75c-.17,0-.18-.13-.36-.13s-.23.13-.39.13-.24-.13-.35-.13a.43.43,0,0,0-.28.1V19a.54.54,0,0,1,.28-.1c.14,0,.21.14.35.14s.24-.14.39-.14.21.14.36.14a.4.4,0,0,0,.25-.1v-.34A.31.31,0,0,1,10.46,18.75Z"/><path class="c" d="M9.08,17.85v.28A2.18,2.18,0,0,0,10.71,18v-.28A2.61,2.61,0,0,1,9.08,17.85Z"/><rect class="c" x="9.08" y="16.33" width="1.63" height="0.3"/><path class="c" d="M10.46,15.62c-.17,0-.18-.13-.36-.13s-.23.13-.39.13-.24-.13-.35-.13a.43.43,0,0,0-.28.1v.3a.54.54,0,0,1,.28-.1c.14,0,.21.14.35.14s.24-.14.39-.14.21.14.36.14a.4.4,0,0,0,.25-.1v-.34A.31.31,0,0,1,10.46,15.62Z"/><path class="c" d="M9.08,14.72V15a2.18,2.18,0,0,0,1.63-.12v-.28A2.61,2.61,0,0,1,9.08,14.72Z"/><rect class="c" x="12.21" y="14.87" width="0.29" height="0.3"/><path class="c" d="M12.21,14.14v.3a.54.54,0,0,1,.28-.1h0V14h0A.43.43,0,0,0,12.21,14.14Z"/><path class="c" d="M12.21,13.55l.29.05v-.29l-.29,0Z"/><rect class="c" x="12.21" y="24.25" width="0.29" height="0.3"/><path class="c" d="M12.21,23.51v.3a.54.54,0,0,1,.28-.1h0v-.3h0A.43.43,0,0,0,12.21,23.51Z"/><path class="c" d="M12.21,22.92l.29.05v-.29l-.29,0Z"/><rect class="c" x="12.21" y="21.12" width="0.29" height="0.3"/><path class="c" d="M12.21,20.39v.3a.54.54,0,0,1,.28-.1h0v-.3h0A.43.43,0,0,0,12.21,20.39Z"/><path class="c" d="M12.21,19.8l.29.05v-.29l-.29,0Z"/><rect class="c" x="12.21" y="18" width="0.29" height="0.3"/><path class="c" d="M12.21,17.26v.3a.54.54,0,0,1,.28-.1h0v-.3h0A.43.43,0,0,0,12.21,17.26Z"/><path class="c" d="M12.21,16.67l.29.05v-.29l-.29,0Z"/><rect class="c" y="2.37" width="1.34" height="0.3"/><path class="c" d="M.73,1.84c.15,0,.21.14.36.14a.4.4,0,0,0,.25-.1V1.53a.31.31,0,0,1-.25.13c-.17,0-.18-.13-.36-.13s-.23.13-.39.13S.1,1.55,0,1.54v.3c.13,0,.2.13.33.13S.58,1.84.73,1.84Z"/><path class="c" d="M1.34.93V.65A2.36,2.36,0,0,1,0,.81V1.1A2,2,0,0,0,1.34.93Z"/><rect class="c" y="11.75" width="1.34" height="0.3"/><path class="c" d="M.73,11.21c.15,0,.21.14.36.14a.4.4,0,0,0,.25-.1v-.34a.31.31,0,0,1-.25.13c-.17,0-.18-.13-.36-.13S.5,11,.33,11,.1,10.93,0,10.91v.3c.13,0,.2.13.33.13S.58,11.21.73,11.21Z"/><path class="c" d="M1.34,10.31V10A2.36,2.36,0,0,1,0,10.18v.29A2,2,0,0,0,1.34,10.31Z"/><rect class="c" y="8.62" width="1.34" height="0.3"/><path class="c" d="M.73,8.09c.15,0,.21.14.36.14a.4.4,0,0,0,.25-.1V7.78a.31.31,0,0,1-.25.13c-.17,0-.18-.13-.36-.13s-.23.13-.39.13S.1,7.8,0,7.79v.3c.13,0,.2.13.33.13S.58,8.09.73,8.09Z"/><path class="c" d="M1.34,7.18V6.9A2.36,2.36,0,0,1,0,7.06v.29A2,2,0,0,0,1.34,7.18Z"/><rect class="c" y="5.5" width="1.34" height="0.3"/><path class="c" d="M.73,5c.15,0,.21.14.36.14A.4.4,0,0,0,1.33,5V4.66a.31.31,0,0,1-.25.13c-.17,0-.18-.13-.36-.13s-.23.13-.39.13S.1,4.68,0,4.66V5c.13,0,.2.13.33.13S.58,5,.73,5Z"/><path class="c" d="M1.34,4.06V3.78A2.36,2.36,0,0,1,0,3.93v.29A2,2,0,0,0,1.34,4.06Z"/><rect class="c" x="2.83" y="0.7" width="1.63" height="0.3"/><path class="c" d="M3.11.17c.14,0,.21.14.35.14S3.7.17,3.85.17s.21.14.36.14a.4.4,0,0,0,.25-.1V0H2.83V.27A.54.54,0,0,1,3.11.17Z"/><path class="c" d="M4.21,12.5c-.17,0-.18-.13-.36-.13s-.23.13-.39.13-.24-.13-.35-.13a.43.43,0,0,0-.28.1v0H4.46v-.13A.31.31,0,0,1,4.21,12.5Z"/><path class="c" d="M2.83,11.6v.28a2.18,2.18,0,0,0,1.63-.12v-.28A2.61,2.61,0,0,1,2.83,11.6Z"/><rect class="c" x="2.83" y="10.08" width="1.63" height="0.3"/><path class="c" d="M4.21,9.37c-.17,0-.18-.13-.36-.13s-.23.13-.39.13-.24-.13-.35-.13a.43.43,0,0,0-.28.1v.3a.54.54,0,0,1,.28-.1c.14,0,.21.14.35.14s.24-.14.39-.14.21.14.36.14a.4.4,0,0,0,.25-.1V9.24A.31.31,0,0,1,4.21,9.37Z"/><path class="c" d="M2.83,8.47v.28a2.18,2.18,0,0,0,1.63-.12V8.36A2.61,2.61,0,0,1,2.83,8.47Z"/><rect class="c" x="2.83" y="6.95" width="1.63" height="0.3"/><path class="c" d="M4.21,6.25c-.17,0-.18-.13-.36-.13s-.23.13-.39.13-.24-.13-.35-.13a.43.43,0,0,0-.28.1v.3a.54.54,0,0,1,.28-.1c.14,0,.21.14.35.14s.24-.14.39-.14.21.14.36.14a.4.4,0,0,0,.25-.1V6.12A.31.31,0,0,1,4.21,6.25Z"/><path class="c" d="M2.83,5.35v.28a2.18,2.18,0,0,0,1.63-.12V5.24A2.61,2.61,0,0,1,2.83,5.35Z"/><rect class="c" x="2.83" y="3.83" width="1.63" height="0.3"/><path class="c" d="M4.21,3.12C4,3.12,4,3,3.85,3s-.23.13-.39.13S3.22,3,3.11,3a.43.43,0,0,0-.28.1v.3a.54.54,0,0,1,.28-.1c.14,0,.21.14.35.14s.24-.14.39-.14.21.14.36.14a.4.4,0,0,0,.25-.1V3A.31.31,0,0,1,4.21,3.12Z"/><path class="c" d="M2.83,2.22v.28a2.18,2.18,0,0,0,1.63-.12V2.11A2.61,2.61,0,0,1,2.83,2.22Z"/><rect class="c" x="5.96" y="2.37" width="1.63" height="0.3"/><path class="c" d="M7.33,1.66c-.17,0-.18-.13-.36-.13s-.23.13-.39.13-.24-.13-.35-.13a.43.43,0,0,0-.28.1v.3a.54.54,0,0,1,.28-.1c.14,0,.21.14.35.14s.24-.14.39-.14.21.14.36.14a.4.4,0,0,0,.25-.1V1.53A.31.31,0,0,1,7.33,1.66Z"/><path class="c" d="M6,.77V1A2.18,2.18,0,0,0,7.59.93V.65A2.61,2.61,0,0,1,6,.77Z"/><rect class="c" x="5.96" y="11.75" width="1.63" height="0.3"/><path class="c" d="M7.33,11c-.17,0-.18-.13-.36-.13s-.23.13-.39.13-.24-.13-.35-.13A.43.43,0,0,0,6,11v.3a.54.54,0,0,1,.28-.1c.14,0,.21.14.35.14s.24-.14.39-.14.21.14.36.14a.4.4,0,0,0,.25-.1v-.34A.31.31,0,0,1,7.33,11Z"/><path class="c" d="M6,10.14v.28a2.18,2.18,0,0,0,1.63-.12V10A2.61,2.61,0,0,1,6,10.14Z"/><rect class="c" x="5.96" y="8.62" width="1.63" height="0.3"/><path class="c" d="M7.33,7.91c-.17,0-.18-.13-.36-.13s-.23.13-.39.13-.24-.13-.35-.13a.43.43,0,0,0-.28.1v.3a.54.54,0,0,1,.28-.1c.14,0,.21.14.35.14s.24-.14.39-.14.21.14.36.14a.4.4,0,0,0,.25-.1V7.78A.31.31,0,0,1,7.33,7.91Z"/><path class="c" d="M6,7V7.3a2.18,2.18,0,0,0,1.63-.12V6.9A2.61,2.61,0,0,1,6,7Z"/><rect class="c" x="5.96" y="5.5" width="1.63" height="0.3"/><path class="c" d="M7.33,4.79c-.17,0-.18-.13-.36-.13s-.23.13-.39.13-.24-.13-.35-.13a.43.43,0,0,0-.28.1v.3A.54.54,0,0,1,6.23,5c.14,0,.21.14.35.14S6.83,5,7,5s.21.14.36.14A.4.4,0,0,0,7.58,5V4.66A.31.31,0,0,1,7.33,4.79Z"/><path class="c" d="M6,3.89v.28a2.18,2.18,0,0,0,1.63-.12V3.78A2.61,2.61,0,0,1,6,3.89Z"/><rect class="c" x="9.08" y="0.7" width="1.63" height="0.3"/><path class="c" d="M9.36.17c.14,0,.21.14.35.14S10,.17,10.1.17s.21.14.36.14a.4.4,0,0,0,.25-.1V0H9.08V.27A.54.54,0,0,1,9.36.17Z"/><path class="c" d="M10.46,12.5c-.17,0-.18-.13-.36-.13s-.23.13-.39.13-.24-.13-.35-.13a.43.43,0,0,0-.28.1v0h1.63v-.13A.31.31,0,0,1,10.46,12.5Z"/><path class="c" d="M9.08,11.6v.28a2.18,2.18,0,0,0,1.63-.12v-.28A2.61,2.61,0,0,1,9.08,11.6Z"/><rect class="c" x="9.08" y="10.08" width="1.63" height="0.3"/><path class="c" d="M10.46,9.37c-.17,0-.18-.13-.36-.13s-.23.13-.39.13-.24-.13-.35-.13a.43.43,0,0,0-.28.1v.3a.54.54,0,0,1,.28-.1c.14,0,.21.14.35.14s.24-.14.39-.14.21.14.36.14a.4.4,0,0,0,.25-.1V9.24A.31.31,0,0,1,10.46,9.37Z"/><path class="c" d="M9.08,8.47v.28a2.18,2.18,0,0,0,1.63-.12V8.36A2.61,2.61,0,0,1,9.08,8.47Z"/><rect class="c" x="9.08" y="6.95" width="1.63" height="0.3"/><path class="c" d="M10.46,6.25c-.17,0-.18-.13-.36-.13s-.23.13-.39.13-.24-.13-.35-.13a.43.43,0,0,0-.28.1v.3a.54.54,0,0,1,.28-.1c.14,0,.21.14.35.14s.24-.14.39-.14.21.14.36.14a.4.4,0,0,0,.25-.1V6.12A.31.31,0,0,1,10.46,6.25Z"/><path class="c" d="M9.08,5.35v.28a2.18,2.18,0,0,0,1.63-.12V5.24A2.61,2.61,0,0,1,9.08,5.35Z"/><rect class="c" x="9.08" y="3.83" width="1.63" height="0.3"/><path class="c" d="M10.46,3.12c-.17,0-.18-.13-.36-.13s-.23.13-.39.13S9.47,3,9.36,3a.43.43,0,0,0-.28.1v.3a.54.54,0,0,1,.28-.1c.14,0,.21.14.35.14s.24-.14.39-.14.21.14.36.14a.4.4,0,0,0,.25-.1V3A.31.31,0,0,1,10.46,3.12Z"/><path class="c" d="M9.08,2.22v.28a2.18,2.18,0,0,0,1.63-.12V2.11A2.61,2.61,0,0,1,9.08,2.22Z"/><rect class="c" x="12.21" y="2.37" width="0.29" height="0.3"/><path class="c" d="M12.21,1.64v.3a.54.54,0,0,1,.28-.1h0v-.3h0A.43.43,0,0,0,12.21,1.64Z"/><path class="c" d="M12.21,1l.29.05V.81l-.29,0Z"/><rect class="c" x="12.21" y="11.75" width="0.29" height="0.3"/><path class="c" d="M12.21,11v.3a.54.54,0,0,1,.28-.1h0v-.3h0A.43.43,0,0,0,12.21,11Z"/><path class="c" d="M12.21,10.42l.29.05v-.29l-.29,0Z"/><rect class="c" x="12.21" y="8.62" width="0.29" height="0.3"/><path class="c" d="M12.21,7.89v.3a.54.54,0,0,1,.28-.1h0v-.3h0A.43.43,0,0,0,12.21,7.89Z"/><path class="c" d="M12.21,7.3l.29.05V7.06l-.29,0Z"/><rect class="c" x="12.21" y="5.5" width="0.29" height="0.3"/><path class="c" d="M12.21,4.76v.3a.54.54,0,0,1,.28-.1h0v-.3h0A.43.43,0,0,0,12.21,4.76Z"/><path class="c" d="M12.21,4.17l.29.05V3.93l-.29,0Z"/><rect class="c" x="12.5" y="14.87" width="1.34" height="0.3"/><path class="c" d="M13.23,14.34c.15,0,.21.14.36.14a.4.4,0,0,0,.25-.1V14a.31.31,0,0,1-.25.13c-.17,0-.18-.13-.36-.13s-.23.13-.39.13-.23-.11-.33-.12v.3c.13,0,.2.13.33.13S13.08,14.34,13.23,14.34Z"/><path class="c" d="M13.84,13.43v-.28a2.36,2.36,0,0,1-1.34.15v.29A2,2,0,0,0,13.84,13.43Z"/><rect class="c" x="12.5" y="24.25" width="1.34" height="0.3"/><path class="c" d="M13.23,23.71c.15,0,.21.14.36.14a.4.4,0,0,0,.25-.1v-.34a.31.31,0,0,1-.25.13c-.17,0-.18-.13-.36-.13s-.23.13-.39.13-.23-.11-.33-.12v.3c.13,0,.2.13.33.13S13.08,23.71,13.23,23.71Z"/><path class="c" d="M13.84,22.81v-.28a2.36,2.36,0,0,1-1.34.15V23A2,2,0,0,0,13.84,22.81Z"/><rect class="c" x="12.5" y="21.12" width="1.34" height="0.3"/><path class="c" d="M13.23,20.59c.15,0,.21.14.36.14a.4.4,0,0,0,.25-.1v-.34a.31.31,0,0,1-.25.13c-.17,0-.18-.13-.36-.13s-.23.13-.39.13-.23-.11-.33-.12v.3c.13,0,.2.13.33.13S13.08,20.59,13.23,20.59Z"/><path class="c" d="M13.84,19.68V19.4a2.36,2.36,0,0,1-1.34.15v.29A2,2,0,0,0,13.84,19.68Z"/><rect class="c" x="12.5" y="18" width="1.34" height="0.3"/><path class="c" d="M13.23,17.46c.15,0,.21.14.36.14a.4.4,0,0,0,.25-.1v-.34a.31.31,0,0,1-.25.13c-.17,0-.18-.13-.36-.13s-.23.13-.39.13-.23-.11-.33-.12v.3c.13,0,.2.13.33.13S13.08,17.46,13.23,17.46Z"/><path class="c" d="M13.84,16.56v-.28a2.36,2.36,0,0,1-1.34.15v.29A2,2,0,0,0,13.84,16.56Z"/><rect class="c" x="15.33" y="13.2" width="1.63" height="0.3"/><path class="c" d="M15.61,12.67c.14,0,.21.14.35.14s.24-.14.39-.14.21.14.36.14a.4.4,0,0,0,.25-.1V12.5H15.33v.27A.54.54,0,0,1,15.61,12.67Z"/><path class="c" d="M16.71,25c-.17,0-.18-.13-.36-.13S16.13,25,16,25s-.24-.13-.35-.13a.43.43,0,0,0-.28.1v0H17v-.13A.31.31,0,0,1,16.71,25Z"/><path class="c" d="M15.33,24.1v.28A2.18,2.18,0,0,0,17,24.27V24A2.61,2.61,0,0,1,15.33,24.1Z"/><rect class="c" x="15.33" y="22.58" width="1.63" height="0.3"/><path class="c" d="M16.71,21.87c-.17,0-.18-.13-.36-.13s-.23.13-.39.13-.24-.13-.35-.13a.43.43,0,0,0-.28.1v.3a.54.54,0,0,1,.28-.1c.14,0,.21.14.35.14s.24-.14.39-.14.21.14.36.14a.4.4,0,0,0,.25-.1v-.34A.31.31,0,0,1,16.71,21.87Z"/><path class="c" d="M15.33,21v.28A2.18,2.18,0,0,0,17,21.14v-.28A2.61,2.61,0,0,1,15.33,21Z"/><rect class="c" x="15.33" y="19.45" width="1.63" height="0.3"/><path class="c" d="M16.71,18.75c-.17,0-.18-.13-.36-.13s-.23.13-.39.13-.24-.13-.35-.13a.43.43,0,0,0-.28.1V19a.54.54,0,0,1,.28-.1c.14,0,.21.14.35.14s.24-.14.39-.14.21.14.36.14A.4.4,0,0,0,17,19v-.34A.31.31,0,0,1,16.71,18.75Z"/><path class="c" d="M15.33,17.85v.28A2.18,2.18,0,0,0,17,18v-.28A2.61,2.61,0,0,1,15.33,17.85Z"/><rect class="c" x="15.33" y="16.33" width="1.63" height="0.3"/><path class="c" d="M16.71,15.62c-.17,0-.18-.13-.36-.13s-.23.13-.39.13-.24-.13-.35-.13a.43.43,0,0,0-.28.1v.3a.54.54,0,0,1,.28-.1c.14,0,.21.14.35.14s.24-.14.39-.14.21.14.36.14a.4.4,0,0,0,.25-.1v-.34A.31.31,0,0,1,16.71,15.62Z"/><path class="c" d="M15.33,14.72V15A2.18,2.18,0,0,0,17,14.89v-.28A2.61,2.61,0,0,1,15.33,14.72Z"/><rect class="c" x="18.46" y="14.87" width="1.63" height="0.3"/><path class="c" d="M19.83,14.16c-.17,0-.18-.13-.36-.13s-.23.13-.39.13-.24-.13-.35-.13a.43.43,0,0,0-.28.1v.3a.54.54,0,0,1,.28-.1c.14,0,.21.14.35.14s.24-.14.39-.14.21.14.36.14a.4.4,0,0,0,.25-.1V14A.31.31,0,0,1,19.83,14.16Z"/><path class="c" d="M18.46,13.27v.28a2.18,2.18,0,0,0,1.63-.12v-.28A2.61,2.61,0,0,1,18.46,13.27Z"/><rect class="c" x="18.46" y="24.25" width="1.63" height="0.3"/><path class="c" d="M19.83,23.54c-.17,0-.18-.13-.36-.13s-.23.13-.39.13-.24-.13-.35-.13a.43.43,0,0,0-.28.1v.3a.54.54,0,0,1,.28-.1c.14,0,.21.14.35.14s.24-.14.39-.14.21.14.36.14a.4.4,0,0,0,.25-.1v-.34A.31.31,0,0,1,19.83,23.54Z"/><path class="c" d="M18.46,22.64v.28a2.18,2.18,0,0,0,1.63-.12v-.28A2.61,2.61,0,0,1,18.46,22.64Z"/><rect class="c" x="18.46" y="21.12" width="1.63" height="0.3"/><path class="c" d="M19.83,20.41c-.17,0-.18-.13-.36-.13s-.23.13-.39.13-.24-.13-.35-.13a.43.43,0,0,0-.28.1v.3a.54.54,0,0,1,.28-.1c.14,0,.21.14.35.14s.24-.14.39-.14.21.14.36.14a.4.4,0,0,0,.25-.1v-.34A.31.31,0,0,1,19.83,20.41Z"/><path class="c" d="M18.46,19.52v.28a2.18,2.18,0,0,0,1.63-.12V19.4A2.61,2.61,0,0,1,18.46,19.52Z"/><rect class="c" x="18.46" y="18" width="1.63" height="0.3"/><path class="c" d="M19.83,17.29c-.17,0-.18-.13-.36-.13s-.23.13-.39.13-.24-.13-.35-.13a.43.43,0,0,0-.28.1v.3a.54.54,0,0,1,.28-.1c.14,0,.21.14.35.14s.24-.14.39-.14.21.14.36.14a.4.4,0,0,0,.25-.1v-.34A.31.31,0,0,1,19.83,17.29Z"/><path class="c" d="M18.46,16.39v.28a2.18,2.18,0,0,0,1.63-.12v-.28A2.61,2.61,0,0,1,18.46,16.39Z"/><rect class="c" x="21.58" y="13.2" width="1.63" height="0.3"/><path class="c" d="M21.86,12.67c.14,0,.21.14.35.14s.24-.14.39-.14.21.14.36.14a.4.4,0,0,0,.25-.1V12.5H21.58v.27A.54.54,0,0,1,21.86,12.67Z"/><path class="c" d="M23,25c-.17,0-.18-.13-.36-.13s-.23.13-.39.13-.24-.13-.35-.13a.43.43,0,0,0-.28.1v0h1.63v-.13A.31.31,0,0,1,23,25Z"/><path class="c" d="M21.58,24.1v.28a2.18,2.18,0,0,0,1.63-.12V24A2.61,2.61,0,0,1,21.58,24.1Z"/><rect class="c" x="21.58" y="22.58" width="1.63" height="0.3"/><path class="c" d="M23,21.87c-.17,0-.18-.13-.36-.13s-.23.13-.39.13-.24-.13-.35-.13a.43.43,0,0,0-.28.1v.3a.54.54,0,0,1,.28-.1c.14,0,.21.14.35.14s.24-.14.39-.14.21.14.36.14a.4.4,0,0,0,.25-.1v-.34A.31.31,0,0,1,23,21.87Z"/><path class="c" d="M21.58,21v.28a2.18,2.18,0,0,0,1.63-.12v-.28A2.61,2.61,0,0,1,21.58,21Z"/><rect class="c" x="21.58" y="19.45" width="1.63" height="0.3"/><path class="c" d="M23,18.75c-.17,0-.18-.13-.36-.13s-.23.13-.39.13-.24-.13-.35-.13a.43.43,0,0,0-.28.1V19a.54.54,0,0,1,.28-.1c.14,0,.21.14.35.14s.24-.14.39-.14.21.14.36.14a.4.4,0,0,0,.25-.1v-.34A.31.31,0,0,1,23,18.75Z"/><path class="c" d="M21.58,17.85v.28A2.18,2.18,0,0,0,23.21,18v-.28A2.61,2.61,0,0,1,21.58,17.85Z"/><rect class="c" x="21.58" y="16.33" width="1.63" height="0.3"/><path class="c" d="M23,15.62c-.17,0-.18-.13-.36-.13s-.23.13-.39.13-.24-.13-.35-.13a.43.43,0,0,0-.28.1v.3a.54.54,0,0,1,.28-.1c.14,0,.21.14.35.14s.24-.14.39-.14.21.14.36.14a.4.4,0,0,0,.25-.1v-.34A.31.31,0,0,1,23,15.62Z"/><path class="c" d="M21.58,14.72V15a2.18,2.18,0,0,0,1.63-.12v-.28A2.61,2.61,0,0,1,21.58,14.72Z"/><rect class="c" x="24.71" y="14.87" width="0.29" height="0.3"/><path class="c" d="M24.71,14.14v.3a.54.54,0,0,1,.28-.1h0V14h0A.43.43,0,0,0,24.71,14.14Z"/><path class="c" d="M24.71,13.55l.29.05v-.29l-.29,0Z"/><rect class="c" x="24.71" y="24.25" width="0.29" height="0.3"/><path class="c" d="M24.71,23.51v.3a.54.54,0,0,1,.28-.1h0v-.3h0A.43.43,0,0,0,24.71,23.51Z"/><path class="c" d="M24.71,22.92,25,23v-.29l-.29,0Z"/><rect class="c" x="24.71" y="21.12" width="0.29" height="0.3"/><path class="c" d="M24.71,20.39v.3a.54.54,0,0,1,.28-.1h0v-.3h0A.43.43,0,0,0,24.71,20.39Z"/><path class="c" d="M24.71,19.8l.29.05v-.29l-.29,0Z"/><rect class="c" x="24.71" y="18" width="0.29" height="0.3"/><path class="c" d="M24.71,17.26v.3a.54.54,0,0,1,.28-.1h0v-.3h0A.43.43,0,0,0,24.71,17.26Z"/><path class="c" d="M24.71,16.67l.29.05v-.29l-.29,0Z"/><rect class="c" x="12.5" y="2.37" width="1.34" height="0.3"/><path class="c" d="M13.23,1.84c.15,0,.21.14.36.14a.4.4,0,0,0,.25-.1V1.53a.31.31,0,0,1-.25.13c-.17,0-.18-.13-.36-.13s-.23.13-.39.13-.23-.11-.33-.12v.3c.13,0,.2.13.33.13S13.08,1.84,13.23,1.84Z"/><path class="c" d="M13.84.93V.65A2.36,2.36,0,0,1,12.5.81V1.1A2,2,0,0,0,13.84.93Z"/><rect class="c" x="12.5" y="11.75" width="1.34" height="0.3"/><path class="c" d="M13.23,11.21c.15,0,.21.14.36.14a.4.4,0,0,0,.25-.1v-.34a.31.31,0,0,1-.25.13c-.17,0-.18-.13-.36-.13S13,11,12.83,11s-.23-.11-.33-.12v.3c.13,0,.2.13.33.13S13.08,11.21,13.23,11.21Z"/><path class="c" d="M13.84,10.31V10a2.36,2.36,0,0,1-1.34.15v.29A2,2,0,0,0,13.84,10.31Z"/><rect class="c" x="12.5" y="8.62" width="1.34" height="0.3"/><path class="c" d="M13.23,8.09c.15,0,.21.14.36.14a.4.4,0,0,0,.25-.1V7.78a.31.31,0,0,1-.25.13c-.17,0-.18-.13-.36-.13s-.23.13-.39.13-.23-.11-.33-.12v.3c.13,0,.2.13.33.13S13.08,8.09,13.23,8.09Z"/><path class="c" d="M13.84,7.18V6.9a2.36,2.36,0,0,1-1.34.15v.29A2,2,0,0,0,13.84,7.18Z"/><rect class="c" x="12.5" y="5.5" width="1.34" height="0.3"/><path class="c" d="M13.23,5c.15,0,.21.14.36.14a.4.4,0,0,0,.25-.1V4.66a.31.31,0,0,1-.25.13c-.17,0-.18-.13-.36-.13s-.23.13-.39.13-.23-.11-.33-.12V5c.13,0,.2.13.33.13S13.08,5,13.23,5Z"/><path class="c" d="M13.84,4.06V3.78a2.36,2.36,0,0,1-1.34.15v.29A2,2,0,0,0,13.84,4.06Z"/><rect class="c" x="15.33" y="0.7" width="1.63" height="0.3"/><path class="c" d="M15.61.17c.14,0,.21.14.35.14s.24-.14.39-.14.21.14.36.14A.4.4,0,0,0,17,.21V0H15.33V.27A.54.54,0,0,1,15.61.17Z"/><path class="c" d="M16.71,12.5c-.17,0-.18-.13-.36-.13s-.23.13-.39.13-.24-.13-.35-.13a.43.43,0,0,0-.28.1v0H17v-.13A.31.31,0,0,1,16.71,12.5Z"/><path class="c" d="M15.33,11.6v.28A2.18,2.18,0,0,0,17,11.77v-.28A2.61,2.61,0,0,1,15.33,11.6Z"/><rect class="c" x="15.33" y="10.08" width="1.63" height="0.3"/><path class="c" d="M16.71,9.37c-.17,0-.18-.13-.36-.13s-.23.13-.39.13-.24-.13-.35-.13a.43.43,0,0,0-.28.1v.3a.54.54,0,0,1,.28-.1c.14,0,.21.14.35.14s.24-.14.39-.14.21.14.36.14a.4.4,0,0,0,.25-.1V9.24A.31.31,0,0,1,16.71,9.37Z"/><path class="c" d="M15.33,8.47v.28A2.18,2.18,0,0,0,17,8.64V8.36A2.61,2.61,0,0,1,15.33,8.47Z"/><rect class="c" x="15.33" y="6.95" width="1.63" height="0.3"/><path class="c" d="M16.71,6.25c-.17,0-.18-.13-.36-.13s-.23.13-.39.13-.24-.13-.35-.13a.43.43,0,0,0-.28.1v.3a.54.54,0,0,1,.28-.1c.14,0,.21.14.35.14s.24-.14.39-.14.21.14.36.14a.4.4,0,0,0,.25-.1V6.12A.31.31,0,0,1,16.71,6.25Z"/><path class="c" d="M15.33,5.35v.28A2.18,2.18,0,0,0,17,5.52V5.24A2.61,2.61,0,0,1,15.33,5.35Z"/><rect class="c" x="15.33" y="3.83" width="1.63" height="0.3"/><path class="c" d="M16.71,3.12c-.17,0-.18-.13-.36-.13s-.23.13-.39.13S15.72,3,15.61,3a.43.43,0,0,0-.28.1v.3a.54.54,0,0,1,.28-.1c.14,0,.21.14.35.14s.24-.14.39-.14.21.14.36.14a.4.4,0,0,0,.25-.1V3A.31.31,0,0,1,16.71,3.12Z"/><path class="c" d="M15.33,2.22v.28A2.18,2.18,0,0,0,17,2.39V2.11A2.61,2.61,0,0,1,15.33,2.22Z"/><rect class="c" x="18.46" y="2.37" width="1.63" height="0.3"/><path class="c" d="M19.83,1.66c-.17,0-.18-.13-.36-.13s-.23.13-.39.13-.24-.13-.35-.13a.43.43,0,0,0-.28.1v.3a.54.54,0,0,1,.28-.1c.14,0,.21.14.35.14s.24-.14.39-.14.21.14.36.14a.4.4,0,0,0,.25-.1V1.53A.31.31,0,0,1,19.83,1.66Z"/><path class="c" d="M18.46.77V1A2.18,2.18,0,0,0,20.09.93V.65A2.61,2.61,0,0,1,18.46.77Z"/><rect class="c" x="18.46" y="11.75" width="1.63" height="0.3"/><path class="c" d="M19.83,11c-.17,0-.18-.13-.36-.13s-.23.13-.39.13-.24-.13-.35-.13a.43.43,0,0,0-.28.1v.3a.54.54,0,0,1,.28-.1c.14,0,.21.14.35.14s.24-.14.39-.14.21.14.36.14a.4.4,0,0,0,.25-.1v-.34A.31.31,0,0,1,19.83,11Z"/><path class="c" d="M18.46,10.14v.28a2.18,2.18,0,0,0,1.63-.12V10A2.61,2.61,0,0,1,18.46,10.14Z"/><rect class="c" x="18.46" y="8.62" width="1.63" height="0.3"/><path class="c" d="M19.83,7.91c-.17,0-.18-.13-.36-.13s-.23.13-.39.13-.24-.13-.35-.13a.43.43,0,0,0-.28.1v.3a.54.54,0,0,1,.28-.1c.14,0,.21.14.35.14s.24-.14.39-.14.21.14.36.14a.4.4,0,0,0,.25-.1V7.78A.31.31,0,0,1,19.83,7.91Z"/><path class="c" d="M18.46,7V7.3a2.18,2.18,0,0,0,1.63-.12V6.9A2.61,2.61,0,0,1,18.46,7Z"/><rect class="c" x="18.46" y="5.5" width="1.63" height="0.3"/><path class="c" d="M19.83,4.79c-.17,0-.18-.13-.36-.13s-.23.13-.39.13-.24-.13-.35-.13a.43.43,0,0,0-.28.1v.3a.54.54,0,0,1,.28-.1c.14,0,.21.14.35.14s.24-.14.39-.14.21.14.36.14a.4.4,0,0,0,.25-.1V4.66A.31.31,0,0,1,19.83,4.79Z"/><path class="c" d="M18.46,3.89v.28a2.18,2.18,0,0,0,1.63-.12V3.78A2.61,2.61,0,0,1,18.46,3.89Z"/><rect class="c" x="21.58" y="0.7" width="1.63" height="0.3"/><path class="c" d="M21.86.17c.14,0,.21.14.35.14s.24-.14.39-.14.21.14.36.14a.4.4,0,0,0,.25-.1V0H21.58V.27A.54.54,0,0,1,21.86.17Z"/><path class="c" d="M23,12.5c-.17,0-.18-.13-.36-.13s-.23.13-.39.13-.24-.13-.35-.13a.43.43,0,0,0-.28.1v0h1.63v-.13A.31.31,0,0,1,23,12.5Z"/><path class="c" d="M21.58,11.6v.28a2.18,2.18,0,0,0,1.63-.12v-.28A2.61,2.61,0,0,1,21.58,11.6Z"/><rect class="c" x="21.58" y="10.08" width="1.63" height="0.3"/><path class="c" d="M23,9.37c-.17,0-.18-.13-.36-.13s-.23.13-.39.13-.24-.13-.35-.13a.43.43,0,0,0-.28.1v.3a.54.54,0,0,1,.28-.1c.14,0,.21.14.35.14s.24-.14.39-.14.21.14.36.14a.4.4,0,0,0,.25-.1V9.24A.31.31,0,0,1,23,9.37Z"/><path class="c" d="M21.58,8.47v.28a2.18,2.18,0,0,0,1.63-.12V8.36A2.61,2.61,0,0,1,21.58,8.47Z"/><rect class="c" x="21.58" y="6.95" width="1.63" height="0.3"/><path class="c" d="M23,6.25c-.17,0-.18-.13-.36-.13s-.23.13-.39.13-.24-.13-.35-.13a.43.43,0,0,0-.28.1v.3a.54.54,0,0,1,.28-.1c.14,0,.21.14.35.14s.24-.14.39-.14.21.14.36.14a.4.4,0,0,0,.25-.1V6.12A.31.31,0,0,1,23,6.25Z"/><path class="c" d="M21.58,5.35v.28a2.18,2.18,0,0,0,1.63-.12V5.24A2.61,2.61,0,0,1,21.58,5.35Z"/><rect class="c" x="21.58" y="3.83" width="1.63" height="0.3"/><path class="c" d="M23,3.12c-.17,0-.18-.13-.36-.13s-.23.13-.39.13S22,3,21.86,3a.43.43,0,0,0-.28.1v.3a.54.54,0,0,1,.28-.1c.14,0,.21.14.35.14s.24-.14.39-.14.21.14.36.14a.4.4,0,0,0,.25-.1V3A.31.31,0,0,1,23,3.12Z"/><path class="c" d="M21.58,2.22v.28a2.18,2.18,0,0,0,1.63-.12V2.11A2.61,2.61,0,0,1,21.58,2.22Z"/><rect class="c" x="24.71" y="2.37" width="0.29" height="0.3"/><path class="c" d="M24.71,1.64v.3a.54.54,0,0,1,.28-.1h0v-.3h0A.43.43,0,0,0,24.71,1.64Z"/><path class="c" d="M24.71,1,25,1.1V.81l-.29,0Z"/><rect class="c" x="24.71" y="11.75" width="0.29" height="0.3"/><path class="c" d="M24.71,11v.3a.54.54,0,0,1,.28-.1h0v-.3h0A.43.43,0,0,0,24.71,11Z"/><path class="c" d="M24.71,10.42l.29.05v-.29l-.29,0Z"/><rect class="c" x="24.71" y="8.62" width="0.29" height="0.3"/><path class="c" d="M24.71,7.89v.3a.54.54,0,0,1,.28-.1h0v-.3h0A.43.43,0,0,0,24.71,7.89Z"/><path class="c" d="M24.71,7.3l.29.05V7.06l-.29,0Z"/><rect class="c" x="24.71" y="5.5" width="0.29" height="0.3"/><path class="c" d="M24.71,4.76v.3A.54.54,0,0,1,25,5h0v-.3h0A.43.43,0,0,0,24.71,4.76Z"/><path class="c" d="M24.71,4.17l.29.05V3.93l-.29,0Z"/></pattern></defs><title>gris patron</title><rect class="d" width="75" height="75"/></svg>